<svg width="44" height="43" viewBox="0 0 44 43" fill="none" xmlns="http://www.w3.org/2000/svg">
<path d="M42 21.5C42.0034 24.1343 41.4847 26.7432 40.4739 29.1759C39.4631 31.6085 37.9803 33.8168 36.111 35.673C34.2571 37.5237 32.0566 38.9909 29.6354 39.9907C27.2141 40.9905 24.6196 41.5034 22 41.5C10.954 41.5 2.00002 32.546 2.00002 21.5C1.99303 16.3718 3.96289 11.4382 7.50002 7.72502C9.36636 5.75562 11.6149 4.18776 14.1081 3.1174C16.6014 2.04704 19.2868 1.49668 22 1.50002C24.6196 1.49662 27.2141 2.0095 29.6354 3.00933C32.0566 4.00916 34.2571 5.47634 36.111 7.32702C37.9803 9.18324 39.4631 11.3915 40.4739 13.8242C41.4847 16.2568 42.0034 18.8657 42 21.5Z" stroke="black" stroke-width="3" stroke-linecap="round" stroke-linejoin="round"/>
<path d="M42 21.5C39.082 21.5 31.032 20.4 23.827 23.563C16 27 10.333 32.332 7.86304 35.647" stroke="black" stroke-width="3" stroke-linecap="round" stroke-linejoin="round"/>
<path d="M14.5 2.9541C17.63 5.8431 24.46 13.1981 27 20.5001C29.54 27.8021 30.48 36.7801 31.06 39.3351" stroke="black" stroke-width="3" stroke-linecap="round" stroke-linejoin="round"/>
<path d="M2.15405 19.0002C5.93205 19.2282 15.9331 19.4332 22.3331 16.7002C28.7331 13.9672 34.2401 8.94021 36.1291 7.34521M3.50005 29.1132C5.26237 33.3791 8.44076 36.9075 12.5001 39.1042" stroke="black" stroke-width="3" stroke-linecap="round" stroke-linejoin="round"/>
<path d="M2.00002 21.5C1.99303 16.3718 3.96289 11.4382 7.50002 7.72502C9.36636 5.75561 11.6149 4.18776 14.1081 3.1174C16.6014 2.04704 19.2868 1.49668 22 1.50002M30 3.16402C32.2776 4.16055 34.3499 5.57225 36.111 7.32701C37.9803 9.18324 39.4631 11.3915 40.4739 13.8242C41.4847 16.2568 42.0034 18.8657 42 21.5C42 23.962 41.555 26.321 40.74 28.5M22 41.5C24.6196 41.5034 27.2141 40.9905 29.6354 39.9907C32.0566 38.9909 34.2571 37.5237 36.111 35.673" stroke="black" stroke-width="3" stroke-linecap="round" stroke-linejoin="round"/>
</svg>
