<svg width="40" height="41" viewBox="0 0 40 41" fill="none" xmlns="http://www.w3.org/2000/svg">
<path d="M20.002 14.5C18.4107 14.5 16.8846 15.1321 15.7594 16.2574C14.6341 17.3826 14.002 18.9087 14.002 20.5C14.002 22.0913 14.6341 23.6174 15.7594 24.7426C16.8846 25.8679 18.4107 26.5 20.002 26.5C21.5933 26.5 23.1194 25.8679 24.2446 24.7426C25.3699 23.6174 26.002 22.0913 26.002 20.5C26.002 18.9087 25.3699 17.3826 24.2446 16.2574C23.1194 15.1321 21.5933 14.5 20.002 14.5ZM20.002 10.5C22.6542 10.5 25.1977 11.5536 27.0731 13.4289C28.9484 15.3043 30.002 17.8478 30.002 20.5C30.002 23.1522 28.9484 25.6957 27.0731 27.5711C25.1977 29.4464 22.6542 30.5 20.002 30.5C17.3498 30.5 14.8063 29.4464 12.9309 27.5711C11.0556 25.6957 10.002 23.1522 10.002 20.5C10.002 17.8478 11.0556 15.3043 12.9309 13.4289C14.8063 11.5536 17.3498 10.5 20.002 10.5ZM33.002 10C33.002 10.663 32.7386 11.2989 32.2698 11.7678C31.8009 12.2366 31.165 12.5 30.502 12.5C29.839 12.5 29.2031 12.2366 28.7342 11.7678C28.2654 11.2989 28.002 10.663 28.002 10C28.002 9.33696 28.2654 8.70107 28.7342 8.23223C29.2031 7.76339 29.839 7.5 30.502 7.5C31.165 7.5 31.8009 7.76339 32.2698 8.23223C32.7386 8.70107 33.002 9.33696 33.002 10ZM20.002 4.5C15.054 4.5 14.246 4.514 11.944 4.616C10.376 4.69 9.324 4.9 8.348 5.28C7.53123 5.57988 6.79283 6.06052 6.188 6.686C5.56201 7.2908 5.08071 8.02917 4.78 8.846C4.4 9.826 4.19 10.876 4.118 12.442C4.014 14.65 4 15.422 4 20.5C4 25.45 4.014 26.256 4.116 28.558C4.19 30.124 4.4 31.178 4.778 32.152C5.118 33.022 5.518 33.648 6.182 34.312C6.856 34.984 7.482 35.386 8.342 35.718C9.33 36.1 10.382 36.312 11.942 36.384C14.15 36.488 14.922 36.5 20 36.5C24.95 36.5 25.756 36.486 28.058 36.384C29.622 36.31 30.674 36.1 31.652 35.722C32.468 35.4206 33.2061 34.9402 33.812 34.316C34.486 33.644 34.888 33.018 35.22 32.156C35.6 31.172 35.812 30.12 35.884 28.556C35.988 26.35 36 25.576 36 20.5C36 15.552 35.986 14.744 35.884 12.442C35.81 10.878 35.598 9.822 35.22 8.846C34.9185 8.03003 34.4381 7.29196 33.814 6.686C33.2095 6.05969 32.471 5.57833 31.654 5.278C30.674 4.898 29.622 4.688 28.058 4.616C25.852 4.512 25.08 4.5 20 4.5M20 0.5C25.434 0.5 26.112 0.52 28.246 0.62C30.374 0.72 31.826 1.054 33.1 1.55C34.42 2.058 35.532 2.746 36.644 3.856C37.661 4.85579 38.4479 6.06518 38.95 7.4C39.444 8.674 39.78 10.126 39.88 12.256C39.974 14.388 40 15.066 40 20.5C40 25.934 39.98 26.612 39.88 28.744C39.78 30.874 39.444 32.324 38.95 33.6C38.4493 34.9355 37.6622 36.1452 36.644 37.144C35.6439 38.1606 34.4346 38.9475 33.1 39.45C31.826 39.944 30.374 40.28 28.246 40.38C26.112 40.474 25.434 40.5 20 40.5C14.566 40.5 13.888 40.48 11.754 40.38C9.626 40.28 8.176 39.944 6.9 39.45C5.56465 38.9489 4.35505 38.1619 3.356 37.144C2.33886 36.1443 1.55192 34.9349 1.05 33.6C0.554 32.326 0.22 30.874 0.12 28.744C0.0239999 26.612 0 25.934 0 20.5C0 15.066 0.0199999 14.388 0.12 12.256C0.22 10.126 0.554 8.676 1.05 7.4C1.55047 6.06436 2.33761 4.85464 3.356 3.856C4.35534 2.83846 5.56486 2.05146 6.9 1.55C8.174 1.054 9.624 0.72 11.754 0.62C13.89 0.526 14.568 0.5 20.002 0.5" fill="black"/>
</svg>
