<svg width="358" height="15" viewBox="0 0 358 15" fill="none" xmlns="http://www.w3.org/2000/svg">
<path d="M2.56348 0.5C25.9148 0.881205 49.2766 1.64091 72.6465 2.42383C96.015 3.2067 119.393 4.01345 142.77 4.48633C213.52 5.90075 285.155 1.55802 355.643 9.4043V9.40332C356.687 9.52798 357.603 10.7026 357.491 12.1914C357.371 13.6807 356.31 14.6029 355.278 14.4902H355.279C284.863 6.64796 213.215 10.9991 142.705 9.58691C119.339 9.1142 95.9714 8.30833 72.6035 7.52539C49.2366 6.74248 25.8692 5.98195 2.51074 5.60059H2.50977C1.46797 5.58532 0.483582 4.51799 0.5 3.01562C0.517285 1.51581 1.52172 0.485729 2.56348 0.5Z" fill="black" stroke="black"/>
</svg>
