<svg width="40" height="83" viewBox="0 0 40 83" fill="none" xmlns="http://www.w3.org/2000/svg">
<path d="M22.1346 3.91326C21.1522 3.47668 16.3297 5.69488 11.178 8.81649C3.18174 13.6962 2.04997 14.8582 2.61754 16.7573C3.87526 21.6236 6.30503 21.328 15.433 15.2863C25.2343 8.58472 26.9958 5.80232 22.1346 3.91326Z" fill="black"/>
<path d="M23.0652 37.5441C9.25233 37.4316 5.66898 38.4089 8.19447 41.8479C9.22045 43.245 14.3604 43.9368 23.6933 44.0308C31.5065 44.0828 38.1224 43.8561 38.6598 43.4615C39.0896 43.1458 38.6514 41.648 37.6254 40.2509C36.2048 38.3165 32.5845 37.6667 23.0652 37.5441Z" fill="black"/>
<path d="M23.717 64.9048C13.3128 59.9731 2.65175 56.7189 2.02206 58.3393C0.927247 61.1284 4.34102 63.7496 14.0131 67.2339C19.326 69.2875 25.0117 71.3982 26.711 72.1353C28.4104 72.8725 30.1668 73.2369 30.7041 72.8423C32.9609 71.1849 30.0341 67.8753 23.717 64.9048Z" fill="black"/>
</svg>
