<svg width="151" height="136" viewBox="0 0 151 136" fill="none" xmlns="http://www.w3.org/2000/svg">
<g filter="url(#filter0_d_1_1181)">
<path d="M64.5679 22.59V45.1802L52.7817 39.2871C46.2993 36.1441 40.2098 33.394 39.0311 33.394C34.5131 33.394 37.6561 39.4836 46.1029 46.9482C52.1924 52.2519 54.3532 55.1985 52.5853 55.7878C51.0138 56.3771 39.424 59.5201 26.4592 62.6631C2.29751 68.5562 -2.61341 71.1099 1.11889 74.8422C2.49394 76.2172 11.9229 75.6279 32.9416 72.4849C49.4423 70.1277 63.3893 68.7526 63.9786 69.3419C64.5679 70.1277 61.2285 77.003 56.7104 84.8604C51.996 92.7179 48.0672 99.7896 47.6744 100.379C47.2815 101.165 48.2637 102.736 49.6387 103.915C51.996 105.879 53.9603 104.897 60.2463 99.3967C64.5679 95.468 68.8895 92.325 69.8717 92.325C70.8539 92.325 72.8182 98.2181 74.3897 105.486C77.7292 122.38 80.0864 127.684 84.408 127.684C89.7118 127.684 90.694 121.594 89.1225 99.0039C88.3367 87.6105 88.3367 78.5744 89.3189 78.5744C90.3011 78.5744 98.1586 81.7174 106.802 85.4497C123.892 92.9143 129.392 93.8965 129.392 89.5749C129.392 85.6462 126.249 82.8961 111.123 72.4849C103.855 67.7704 97.9621 63.2524 97.9621 62.6631C97.9621 62.0738 107.98 58.7343 120.159 55.1985C141.964 48.9125 151 44.7874 151 41.2515C151 38.3049 138.624 38.8943 118.981 42.4301C109.552 44.198 101.105 45.1802 100.516 44.3945C99.9265 43.8052 101.302 38.6978 103.659 33.1976C112.498 11.786 106.998 9.82164 93.2476 29.6617C88.1403 37.3228 83.0329 42.823 82.2472 41.8408C81.4615 41.0551 79.3006 33.1976 77.3363 24.5544C73.4075 6.08935 70.8539 -0.000190754 67.1216 -0.000190754C65.1572 -0.000190754 64.5679 5.10716 64.5679 22.59Z" fill="#F3ABCB"/>
<path d="M84.4082 126.684C85.519 126.684 86.2722 126.378 86.8525 125.719C87.4813 125.005 88.0114 123.759 88.3564 121.653C89.0465 117.442 88.9122 110.39 88.125 99.0732V99.0723C87.7312 93.362 87.5328 88.2273 87.5576 84.5098C87.57 82.6572 87.6376 81.1261 87.7705 80.043C87.8359 79.5105 87.9239 79.0297 88.0508 78.6602C88.1124 78.4806 88.2053 78.2586 88.3574 78.0635C88.5105 77.8671 88.8281 77.5742 89.3193 77.5742C89.6045 77.5743 89.9671 77.6685 90.2725 77.7559C90.6245 77.8566 91.0663 78.0004 91.5791 78.1797C92.6072 78.5391 93.966 79.0545 95.5547 79.6826C98.7348 80.9399 102.871 82.6625 107.198 84.5312L107.202 84.5332C115.763 88.2725 121.306 90.334 124.685 90.9482C126.402 91.2604 127.339 91.1529 127.812 90.9121C128.142 90.7436 128.392 90.4318 128.392 89.5752C128.392 88.747 128.232 88.005 127.787 87.1904C127.329 86.3513 126.55 85.3985 125.25 84.1943C122.64 81.7759 118.145 78.5324 110.579 73.3242C106.928 70.9561 103.619 68.6344 101.216 66.8262C100.016 65.9235 99.0316 65.1396 98.3398 64.5371C97.9968 64.2383 97.707 63.9687 97.4961 63.7412C97.3924 63.6294 97.2871 63.5052 97.2012 63.3779C97.1581 63.3141 97.1069 63.23 97.0635 63.1309C97.0244 63.0415 96.9619 62.8749 96.9619 62.6631C96.9619 62.3032 97.1418 62.0586 97.2158 61.9678C97.306 61.8571 97.405 61.7763 97.4746 61.7236C97.6175 61.6157 97.7889 61.517 97.9551 61.4307C98.2973 61.2529 98.773 61.0456 99.3467 60.8164C100.502 60.3548 102.156 59.7651 104.176 59.0879C108.22 57.7317 113.783 56.0087 119.881 54.2383L119.883 54.2373C130.779 51.0962 138.43 48.5103 143.344 46.2832C145.806 45.1673 147.523 44.1664 148.61 43.2676C149.714 42.3547 149.996 41.6913 149.999 41.2578C149.989 41.2435 149.956 41.1982 149.863 41.1348C149.646 40.9854 149.235 40.8154 148.557 40.6748C147.212 40.3962 145.149 40.2996 142.396 40.4092C136.917 40.6274 128.967 41.6488 119.164 43.4131H119.165C114.434 44.3001 109.939 44.9924 106.542 45.3643C104.848 45.5497 103.404 45.6583 102.333 45.668C101.802 45.6728 101.327 45.6535 100.946 45.5977C100.757 45.5699 100.557 45.5285 100.371 45.46C100.223 45.4053 99.9729 45.2939 99.7715 45.0625C99.6028 44.8784 99.5175 44.6744 99.4717 44.5244C99.4206 44.3572 99.398 44.1883 99.3877 44.0381C99.3672 43.7387 99.3893 43.3968 99.4346 43.043C99.5261 42.3279 99.7304 41.4102 100.019 40.3701C100.597 38.2817 101.546 35.5873 102.739 32.8037C104.936 27.4818 106.216 23.4259 106.71 20.6475C106.959 19.2479 106.993 18.2469 106.888 17.5986C106.836 17.2794 106.758 17.0962 106.696 17.001C106.644 16.9204 106.611 16.9099 106.598 16.9053C106.525 16.8804 106.186 16.8435 105.41 17.2852C104.679 17.7015 103.746 18.4393 102.619 19.5469C100.374 21.753 97.4963 25.2875 94.0791 30.2168H94.0801C91.506 34.0779 88.9215 37.4102 86.8662 39.666C85.845 40.7869 84.9222 41.6778 84.1758 42.2324C83.8129 42.5021 83.4222 42.7453 83.0381 42.8672C82.6939 42.9763 82.0276 43.0694 81.54 42.5479C81.2965 42.3043 81.1133 41.9351 80.9795 41.6377C80.8247 41.2937 80.6568 40.8583 80.4805 40.3545C80.1268 39.344 79.7159 37.995 79.2715 36.415C78.3817 33.2513 77.346 29.1089 76.3613 24.7764L76.3584 24.7627C74.3934 15.527 72.7886 9.47205 71.2324 5.7373C70.4537 3.86826 69.7189 2.6616 69.0186 1.93262C68.3468 1.23342 67.7363 1.00012 67.1221 1C67.1182 1 67.1221 0.9922 67.0957 1.01465C67.0469 1.05632 66.9393 1.178 66.8086 1.47461C66.5414 2.08089 66.2959 3.13902 66.1016 4.85156C65.7161 8.24886 65.5684 13.841 65.5684 22.5898V46.7979L64.1211 46.0742L52.335 40.1816C49.103 38.6147 45.9779 37.1505 43.5186 36.0791C42.2861 35.5422 41.2317 35.1085 40.4209 34.8115C40.015 34.6629 39.6822 34.5529 39.4258 34.4814C39.2979 34.4458 39.1977 34.4223 39.123 34.4082C39.043 34.3931 39.018 34.3936 39.0312 34.3936C38.5663 34.3936 38.3051 34.4744 38.1729 34.5469C38.0687 34.604 38.0264 34.6628 37.999 34.7529C37.9128 35.0374 37.9725 35.7173 38.5928 36.9102C39.7838 39.2007 42.5684 42.4915 46.7588 46.1953L46.7598 46.1943C49.8098 48.8508 51.9456 50.9753 53.0967 52.5449C53.6524 53.3028 54.0888 54.0729 54.1689 54.793C54.2126 55.1862 54.1557 55.6218 53.8965 56.0107C53.6488 56.3822 53.2898 56.6006 52.9355 56.7246H52.9365C52.0919 57.0413 48.7394 57.9892 44.0518 59.2344C39.3306 60.4884 33.1848 62.0615 26.6953 63.6348H26.6963C14.5888 66.5878 7.4328 68.6764 3.7666 70.4619C2.86013 70.9034 2.20831 71.3073 1.76074 71.6748C1.31023 72.0448 1.11856 72.3357 1.04492 72.5371C0.942774 72.8171 0.963155 73.2717 1.82617 74.1348C1.80612 74.1147 1.89187 74.2 2.26562 74.2949C2.6127 74.383 3.10776 74.4556 3.77832 74.498C5.11768 74.5829 7.03066 74.5434 9.59277 74.3604C14.7094 73.9949 22.2906 73.0667 32.7939 71.4961L32.7998 71.4951C41.0606 70.315 48.6873 69.3799 54.3271 68.8135C57.1448 68.5305 59.4779 68.338 61.1504 68.2539C61.9835 68.212 62.6726 68.1965 63.1826 68.2119C63.4346 68.2195 63.6704 68.2354 63.8691 68.2666C63.9674 68.282 64.0829 68.3047 64.1982 68.3428C64.2892 68.3729 64.5003 68.4496 64.6855 68.6348L64.7363 68.6855L64.7783 68.7422C64.9801 69.0113 65.028 69.3054 65.041 69.4883C65.0552 69.687 65.0371 69.887 65.0088 70.0674C64.9519 70.4298 64.8308 70.8566 64.6729 71.3174C64.3541 72.2477 63.8318 73.4653 63.1631 74.877C61.8218 77.7085 59.8438 81.4174 57.5771 85.3594L57.5723 85.3672L57.5684 85.375L55.8457 88.2676C54.1706 91.1019 52.6538 93.7269 51.4395 95.8428C49.9922 98.3645 48.9378 100.223 48.5889 100.796C48.5897 100.814 48.591 100.845 48.6006 100.891C48.6304 101.032 48.7084 101.238 48.8594 101.5C49.1587 102.019 49.6645 102.618 50.2793 103.146C50.7876 103.57 51.1897 103.763 51.5645 103.823C51.9348 103.882 52.4001 103.831 53.0684 103.539C54.4698 102.926 56.411 101.423 59.5723 98.6572H59.5732C61.7558 96.673 63.9446 94.8819 65.7207 93.5811C66.6069 92.932 67.4051 92.394 68.0576 92.0137C68.3828 91.8241 68.6891 91.6631 68.9629 91.5469C69.2055 91.4439 69.537 91.3252 69.8721 91.3252C70.4682 91.3254 70.8661 91.7359 71.042 91.9404C71.2653 92.2002 71.47 92.536 71.6582 92.8975C72.0396 93.6299 72.4452 94.6495 72.8564 95.8584C73.6828 98.2874 74.5763 101.617 75.3672 105.275L75.3691 105.283L75.3711 105.292C77.0423 113.746 78.4484 119.19 79.9424 122.51C80.6867 124.164 81.4174 125.207 82.1426 125.834C82.8373 126.434 83.5618 126.684 84.4082 126.684Z" stroke="black" stroke-width="2"/>
</g>
<defs>
<filter id="filter0_d_1_1181" x="0" y="-0.000244141" width="151" height="135.448" filterUnits="userSpaceOnUse" color-interpolation-filters="sRGB">
<feFlood flood-opacity="0" result="BackgroundImageFix"/>
<feColorMatrix in="SourceAlpha" type="matrix" values="0 0 0 0 0 0 0 0 0 0 0 0 0 0 0 0 0 0 127 0" result="hardAlpha"/>
<feOffset dy="7.76457"/>
<feComposite in2="hardAlpha" operator="out"/>
<feColorMatrix type="matrix" values="0 0 0 0 0.745098 0 0 0 0 0.74902 0 0 0 0 0.705882 0 0 0 1 0"/>
<feBlend mode="normal" in2="BackgroundImageFix" result="effect1_dropShadow_1_1181"/>
<feBlend mode="normal" in="SourceGraphic" in2="effect1_dropShadow_1_1181" result="shape"/>
</filter>
</defs>
</svg>
