<svg width="145" height="155" viewBox="0 0 145 155" fill="none" xmlns="http://www.w3.org/2000/svg">
<g filter="url(#filter0_d_225_13)">
<path d="M61.5696 2.63695C60.9016 4.68876 60.9016 4.64103 63.5737 27.7835C64.6235 37.136 65.3869 44.9615 65.2438 45.1046C65.1006 45.2478 61.4742 43.2914 57.2274 40.7147C49.1156 35.8476 44.01 33.4141 42.0059 33.3664C39.7155 33.3664 38.6657 34.607 38.6657 37.2314C38.6657 39.9989 39.5246 42.337 44.9643 54.3616C49.4496 64.2389 50.1654 66.4816 49.1633 67.4359C47.875 68.6765 44.01 69.6309 24.0645 73.6391C13.2328 75.834 3.54638 78.029 2.54434 78.5539C-0.843534 80.1762 0.253945 83.0869 4.97788 84.8524C6.31394 85.3296 13.2328 87.0474 20.3426 88.6698C40.0018 93.1074 52.0263 96.8293 52.0263 98.4993C52.0263 98.8811 50.3562 100.933 48.3044 103.128C40.9084 111.001 36.3753 116.393 36.0413 117.681C35.8027 118.683 35.9459 119.161 36.7571 119.829C37.6159 120.544 37.9977 120.544 39.8586 120.019C41.0038 119.638 46.8729 116.775 52.8375 113.625C58.8021 110.476 64.2417 107.804 64.9098 107.661C66.8662 107.184 67.4387 107.947 67.6296 111.001C67.725 112.528 68.1068 120.353 68.4885 128.418C69.4428 147.313 70.0154 150.272 72.7353 150.272C75.8846 150.272 78.2704 145.357 85.2847 124.075C88.2909 115.009 91.0107 107.279 91.3447 106.945C91.8219 106.42 92.299 106.707 93.7782 108.377C97.5956 112.719 108.141 123.169 109.382 123.837C112.292 125.364 113.915 124.028 113.437 120.497C113.247 119.399 111.529 113.196 109.572 106.611C107.616 100.074 106.041 94.6343 106.137 94.5389C106.232 94.4434 109.143 95.1592 112.531 96.1135C120.69 98.3562 133.86 101.076 138.632 101.41C142.115 101.696 142.544 101.649 143.356 100.742C145.217 98.6425 144.31 97.5927 128.945 83.2778C123.362 78.0767 118.877 73.5436 118.973 73.2573C119.068 72.971 121.74 71.2055 124.889 69.3923C132.763 64.8115 137.296 61.4236 138.25 59.3718C139.013 57.7495 139.013 57.654 138.059 56.6997C136.723 55.3159 130.759 54.6956 123.076 55.0296C119.784 55.1728 116.921 55.1728 116.778 54.9819C116.587 54.8388 118.973 52.0712 122.074 48.9219C130.997 39.7126 138.536 30.9805 140.206 27.7835C141.542 25.3023 140.731 23.3459 138.393 23.3459C137.391 23.3459 127.943 28.0221 114.821 34.941C109.572 37.7085 105.182 39.9035 104.992 39.8081C104.801 39.7126 104.753 34.7024 104.896 28.7379C105.135 16.3316 104.753 14.1366 102.558 13.898C100.936 13.7072 100.602 14.232 94.9712 24.7774C90.1518 33.8912 88.2431 37.1837 87.7183 37.1837C87.5274 37.1837 86.5731 35.7522 85.5233 33.9389C84.5212 32.1734 82.2309 28.1653 80.4653 25.016C74.8825 15.1864 68.6317 5.26135 66.6753 3.06639C65.2915 1.44403 64.4803 0.919144 63.4783 0.919144C62.3331 0.919144 62.0468 1.20545 61.5696 2.63695ZM66.7707 7.7426C69.7769 12.2757 77.4592 25.2546 81.2765 32.2689C84.4258 38.138 86.239 40.5238 87.6228 40.5238C89.2452 40.5238 91.9173 36.7542 96.3072 28.213C98.7885 23.489 101.079 19.1946 101.461 18.7174C102.033 17.9539 102.129 18.0017 102.224 19.5286C102.272 20.4352 102.319 26.018 102.367 31.9349V42.6711L103.656 42.8142C104.61 42.9096 109.334 40.7147 120.69 34.8456C129.327 30.3602 136.628 26.686 136.914 26.686C137.2 26.686 137.439 26.8292 137.439 27.0201C137.439 27.9267 125.51 41.3827 118.925 48.0153C114.917 52.0235 111.672 55.5545 111.672 55.9362C111.672 57.5586 112.674 57.7018 124.126 57.7018C130.377 57.7018 135.578 57.8926 135.721 58.1312C136.389 59.1332 131.331 62.8074 122.456 67.7699C117.112 70.7284 115.728 72.1121 116.253 74.1162C116.444 74.9751 120.499 79.1265 128.42 86.6657C134.958 92.8211 140.302 98.0699 140.302 98.3085C140.302 99.406 133.86 98.213 118.257 94.348C103.226 90.6261 103.083 90.6261 103.083 93.7754C103.083 94.6343 104.133 98.6902 105.421 102.746C108.714 113.005 110.718 120.688 110.145 120.688C109.429 120.688 104.61 115.964 98.8839 109.617C92.9671 103.032 92.0127 102.317 90.6767 103.032C89.1975 103.844 88.1954 106.229 83.7578 119.972C77.6978 138.677 74.4531 146.932 73.0693 146.932C72.1627 146.932 71.7809 142.685 70.8743 122.548C70.4926 113.721 69.9677 107.47 69.6337 106.707C68.2022 103.557 64.3372 104.178 55.3665 108.997C45.7278 114.15 41.0038 116.488 40.7175 116.202C40.3835 115.916 41.9581 114.055 48.6385 106.945C54.4121 100.742 55.7005 98.7856 54.937 97.3542C53.1715 94.1094 44.2008 91.1033 18.6248 85.1387C8.50889 82.8006 4.78701 81.7031 4.78701 81.0828C4.78701 80.558 4.93016 80.558 24.8279 76.5498C44.3917 72.637 47.5887 71.8736 50.2131 70.5375C54.1259 68.5334 53.8396 66.4339 47.5887 52.5484C42.7216 41.8599 41.2901 37.9949 41.7196 36.9451C42.149 35.7522 45.7755 37.4223 56.2254 43.6731C65.4347 49.2082 67.391 50.1148 67.9159 49.2082C68.0591 49.0174 67.9636 47.6813 67.7251 46.2498C66.9616 41.335 63.7646 6.78827 63.9077 4.83189C64.0032 3.82985 64.3372 4.16386 66.7707 7.7426Z" fill="black"/>
</g>
<g filter="url(#filter1_d_225_13)">
<path d="M81.0385 49.3505C74.0719 51.116 66.0079 56.9374 61.952 63.1405C59.9479 66.2898 58.0392 71.7295 57.562 75.9286C56.1305 87.7145 66.7713 97.4487 79.7025 96.1603C92.8245 94.8243 105.803 83.7063 107.33 72.493C108.523 63.4746 103.895 54.313 96.117 50.4957C93.3971 49.1596 92.4428 48.9688 88.3869 48.8256C85.4285 48.7302 82.7563 48.921 81.0385 49.3505ZM94.6377 53.3587C97.7393 54.8856 101.27 58.4643 102.94 61.8522C104.133 64.3812 104.276 65.0969 104.276 69.63C104.276 74.2108 104.133 74.8788 102.893 77.5032C101.27 80.7956 96.5941 85.7104 92.4428 88.4303C77.8893 97.9736 60.6159 92.2476 60.6159 77.9327C60.6159 71.7295 63.8129 63.57 67.7256 59.6572C69.8252 57.6054 77.0304 53.7404 80.7045 52.6906C84.665 51.5932 91.727 51.9272 94.6377 53.3587Z" fill="black"/>
</g>
<path d="M87.4798 65.1932C86.5732 65.5272 86.7164 67.6268 87.6707 68.1516C89.4362 69.106 91.0586 66.8633 89.6271 65.4318C89.0068 64.8115 88.4819 64.7638 87.4798 65.1932Z" fill="black"/>
<path d="M72.2583 72.2075C71.7334 73.5436 72.306 74.6411 73.5944 74.7842C75.0736 74.9751 75.8848 73.4005 74.9304 72.2553C74.167 71.3487 72.5923 71.3487 72.2583 72.2075Z" fill="black"/>
<path d="M87.1462 79.5073C87.4325 82.7043 87.337 83.3723 86.5736 84.3266C85.8101 85.281 85.4761 85.3764 84.4263 84.9947C83.2811 84.5175 81.5156 82.7043 80.4181 80.8433C79.9887 80.1276 79.8455 80.1276 79.3684 80.7002C78.5095 81.7022 80.3227 85.0901 82.3268 86.3307C85.6192 88.3825 88.8162 86.9033 89.4843 83.0383C89.7706 81.1774 89.0548 77.5032 88.1959 76.4057C87.1462 75.1174 86.8599 75.9763 87.1462 79.5073Z" fill="black"/>
<defs>
<filter id="filter0_d_225_13" x="0.576172" y="0.919128" width="143.482" height="153.353" filterUnits="userSpaceOnUse" color-interpolation-filters="sRGB">
<feFlood flood-opacity="0" result="BackgroundImageFix"/>
<feColorMatrix in="SourceAlpha" type="matrix" values="0 0 0 0 0 0 0 0 0 0 0 0 0 0 0 0 0 0 127 0" result="hardAlpha"/>
<feOffset dy="4"/>
<feComposite in2="hardAlpha" operator="out"/>
<feColorMatrix type="matrix" values="0 0 0 0 0 0 0 0 0 0 0 0 0 0 0 0 0 0 0.25 0"/>
<feBlend mode="normal" in2="BackgroundImageFix" result="effect1_dropShadow_225_13"/>
<feBlend mode="normal" in="SourceGraphic" in2="effect1_dropShadow_225_13" result="shape"/>
</filter>
<filter id="filter1_d_225_13" x="57.4326" y="48.8015" width="50.084" height="51.4736" filterUnits="userSpaceOnUse" color-interpolation-filters="sRGB">
<feFlood flood-opacity="0" result="BackgroundImageFix"/>
<feColorMatrix in="SourceAlpha" type="matrix" values="0 0 0 0 0 0 0 0 0 0 0 0 0 0 0 0 0 0 127 0" result="hardAlpha"/>
<feOffset dy="4"/>
<feComposite in2="hardAlpha" operator="out"/>
<feColorMatrix type="matrix" values="0 0 0 0 0 0 0 0 0 0 0 0 0 0 0 0 0 0 0.25 0"/>
<feBlend mode="normal" in2="BackgroundImageFix" result="effect1_dropShadow_225_13"/>
<feBlend mode="normal" in="SourceGraphic" in2="effect1_dropShadow_225_13" result="shape"/>
</filter>
</defs>
</svg>
